<?xml version="1.0" standalone="no"?>
<!DOCTYPE svg PUBLIC "-//W3C//DTD SVG 20010904//EN"
 "http://www.w3.org/TR/2001/REC-SVG-20010904/DTD/svg10.dtd">
<svg version="1.0" xmlns="http://www.w3.org/2000/svg"
 width="3392.000000pt" height="3392.000000pt" viewBox="0 0 3392.000000 3392.000000"
 preserveAspectRatio="xMidYMid meet">
<metadata>
Created by potrace 1.14, written by Peter Selinger 2001-2017
</metadata>
<g transform="translate(0.000000,3392.000000) scale(0.100000,-0.100000)"
fill="#000000" stroke="none">
<path d="M3126 20373 c-1 -1 -31 -4 -66 -7 -109 -9 -158 -17 -313 -51 -60 -13
-284 -94 -325 -117 -18 -10 -39 -18 -46 -18 -8 0 -16 -3 -18 -7 -1 -5 -30 -21
-63 -38 -65 -32 -63 -30 -215 -130 -103 -68 -235 -172 -303 -237 -19 -18 -62
-59 -96 -91 -33 -32 -61 -60 -61 -61 0 -2 -27 -32 -59 -67 -100 -108 -141
-156 -141 -165 0 -5 -9 -16 -20 -24 -11 -8 -20 -20 -20 -26 0 -7 -3 -14 -8
-16 -9 -3 -82 -101 -127 -168 -16 -25 -32 -47 -35 -50 -6 -6 -6 -6 -110 -178
-44 -73 -80 -135 -80 -138 0 -2 -11 -22 -25 -44 -14 -22 -22 -40 -18 -40 5 0
3 -4 -3 -8 -12 -7 -114 -215 -114 -231 0 -5 -4 -11 -10 -13 -5 -1 -11 -12 -13
-23 -2 -11 -16 -47 -32 -80 -15 -33 -38 -89 -52 -125 -14 -36 -29 -71 -35 -77
-6 -7 -8 -13 -5 -13 4 0 -26 -86 -58 -165 -4 -11 -9 -24 -10 -30 -2 -5 -13
-41 -26 -80 -13 -38 -24 -72 -24 -75 0 -3 -10 -36 -22 -75 -25 -83 -46 -156
-49 -170 -1 -5 -10 -39 -19 -75 -9 -36 -18 -72 -20 -80 -2 -8 -8 -35 -14 -60
-17 -68 -18 -71 -26 -125 -4 -27 -10 -54 -13 -60 -3 -5 -7 -18 -8 -30 -3 -22
-20 -126 -28 -165 -3 -14 -8 -45 -10 -70 -3 -25 -7 -54 -10 -65 -2 -11 -7 -45
-11 -75 -3 -30 -8 -66 -10 -80 -2 -14 -6 -54 -10 -90 -3 -36 -8 -88 -11 -116
-3 -29 -7 -78 -8 -111 -2 -33 -5 -64 -8 -69 -6 -12 -2 -645 5 -709 3 -27 8
-77 12 -110 3 -33 7 -71 10 -85 8 -57 16 -107 20 -135 2 -16 6 -39 9 -50 2
-11 14 -63 26 -115 28 -126 94 -332 137 -430 50 -112 173 -342 193 -360 3 -3
32 -41 65 -85 32 -44 101 -120 151 -170 105 -102 102 -99 175 -151 30 -21 60
-44 67 -51 7 -7 20 -13 28 -13 8 0 14 -4 14 -9 0 -5 10 -13 22 -17 13 -4 25
-10 28 -13 8 -10 172 -87 215 -101 22 -7 46 -17 52 -23 7 -5 13 -6 13 -3 0 4
8 2 18 -3 11 -6 30 -12 43 -14 13 -3 48 -12 77 -20 29 -9 54 -16 57 -17 3 0 6
0 8 -1 1 0 13 -2 27 -3 14 -2 52 -6 85 -11 33 -4 74 -9 90 -11 48 -6 337 -5
378 1 20 3 54 7 75 10 20 2 55 7 77 11 22 3 42 4 45 3 3 -1 14 3 26 9 11 6 33
13 48 16 34 6 94 24 121 36 11 5 45 19 75 30 60 22 122 52 130 61 3 3 20 12
38 20 17 8 32 17 32 21 0 5 7 8 15 8 8 0 15 5 15 10 0 6 5 10 10 10 12 0 73
41 78 53 2 4 10 7 17 7 7 0 15 3 17 8 2 4 37 34 78 67 72 58 247 227 341 330
54 59 212 258 292 368 89 121 287 415 287 427 0 5 4 10 9 10 5 0 16 15 25 33
9 17 40 68 68 112 73 115 308 515 308 524 0 5 7 14 15 21 8 7 15 21 15 30 0
10 4 20 8 22 5 2 22 28 39 58 29 53 61 110 110 195 12 22 27 49 32 60 5 11 26
49 46 85 21 36 50 88 65 115 15 28 60 109 100 180 40 72 86 155 103 185 16 30
57 105 91 165 35 61 66 117 69 125 4 8 20 38 37 65 16 28 37 65 46 83 17 33
17 33 29 10 19 -37 40 -73 45 -78 3 -3 11 -15 18 -27 6 -13 18 -33 25 -45 6
-13 14 -25 17 -28 3 -3 12 -18 20 -34 29 -56 35 -66 42 -66 5 0 8 -4 8 -10 0
-5 30 -60 68 -123 37 -62 74 -126 82 -142 8 -17 17 -32 21 -35 3 -3 38 -61 78
-130 40 -69 77 -134 84 -145 6 -11 25 -42 41 -70 16 -27 36 -61 45 -75 8 -14
16 -27 16 -30 0 -3 10 -19 23 -37 12 -17 22 -34 22 -37 0 -3 17 -34 38 -68 21
-35 41 -70 45 -78 4 -8 16 -28 27 -45 10 -16 27 -46 37 -65 9 -19 20 -37 23
-40 4 -3 17 -25 31 -50 13 -25 28 -49 32 -55 17 -21 107 -178 107 -187 0 -4 4
-8 8 -8 5 0 18 -19 30 -42 13 -24 49 -84 81 -135 32 -50 60 -95 62 -100 11
-24 223 -339 230 -341 5 -2 9 -10 9 -18 0 -8 5 -14 10 -14 6 0 10 -4 10 -10 0
-7 66 -102 108 -155 4 -5 19 -26 32 -45 14 -19 30 -42 37 -50 7 -8 26 -33 43
-55 158 -202 390 -442 517 -537 32 -24 60 -45 63 -49 10 -11 125 -86 170 -110
25 -13 47 -26 50 -29 6 -6 94 -48 128 -61 12 -5 32 -13 45 -18 26 -11 55 -20
62 -21 3 0 21 -6 40 -14 19 -8 51 -17 71 -20 20 -4 40 -8 44 -11 3 -2 20 -7
36 -9 16 -3 40 -8 53 -11 13 -2 46 -7 75 -10 28 -3 69 -8 91 -11 46 -5 323 -5
375 1 47 5 101 13 147 21 21 4 46 8 55 10 9 1 51 12 93 24 67 19 89 26 160 55
11 5 22 9 25 10 25 6 248 129 260 144 3 3 23 19 45 36 83 61 208 186 280 281
25 32 52 68 61 79 8 11 24 36 35 55 11 19 29 51 41 70 62 103 176 363 194 443
1 4 3 9 4 12 1 3 4 10 5 15 1 6 4 11 5 13 1 1 4 11 6 22 2 11 12 52 24 90 18
63 53 223 64 300 2 17 5 30 6 30 2 0 4 11 5 25 5 61 18 167 22 185 22 107 21
782 -2 1023 -8 80 -15 152 -21 202 -3 25 -6 59 -8 75 -1 17 -6 53 -10 80 -4
28 -9 61 -11 75 -2 14 -11 66 -20 115 -8 50 -17 104 -20 120 -3 17 -8 41 -11
55 -3 14 -8 36 -11 50 -4 26 -21 100 -30 135 -7 30 -23 97 -28 125 -6 29 -24
91 -61 214 -14 49 -27 94 -29 100 -1 6 -5 18 -8 26 -9 24 -69 203 -72 215 -1
5 -7 21 -13 35 -6 14 -28 68 -48 120 -47 123 -185 424 -196 428 -4 2 -8 11 -8
21 0 9 -4 21 -9 26 -4 6 -27 46 -51 90 -124 233 -327 524 -505 725 -52 59
-227 233 -289 288 -102 91 -297 229 -411 293 -59 32 -213 109 -221 109 -3 0
-20 7 -37 15 -42 19 -206 72 -260 84 -58 13 -97 21 -129 27 -16 2 -43 7 -60
10 -94 16 -453 20 -453 4 0 -1 -16 -3 -35 -5 -73 -6 -325 -74 -355 -95 -5 -4
-21 -11 -35 -15 -28 -8 -212 -97 -220 -106 -3 -3 -34 -23 -70 -44 -233 -140
-498 -375 -750 -664 -30 -35 -60 -69 -65 -75 -19 -20 -180 -222 -200 -250 -11
-15 -27 -36 -35 -46 -8 -11 -31 -41 -50 -69 -19 -28 -38 -50 -41 -51 -4 0 -58
64 -122 143 -63 78 -125 154 -138 168 -13 14 -55 61 -94 105 -131 147 -343
352 -475 460 -89 73 -199 154 -209 154 -5 0 -11 4 -13 9 -4 10 -164 111 -177
111 -5 0 -11 4 -13 8 -3 7 -145 79 -228 115 -65 29 -211 77 -293 97 -150 36
-220 47 -352 56 -92 6 -255 10 -259 7z m4481 -886 c15 -3 48 -8 73 -12 25 -4
52 -9 60 -12 8 -4 26 -8 39 -10 38 -6 179 -63 241 -96 69 -37 123 -69 130 -76
3 -4 28 -21 55 -40 95 -66 257 -217 326 -305 13 -16 33 -40 44 -52 34 -37 157
-213 209 -299 26 -44 52 -87 57 -95 5 -8 43 -85 85 -170 42 -85 80 -163 85
-173 12 -22 101 -249 103 -262 1 -5 7 -19 13 -30 6 -11 11 -22 11 -25 -1 -3
13 -48 30 -100 35 -110 69 -224 76 -260 3 -14 13 -52 21 -85 20 -75 25 -99 39
-165 26 -124 42 -207 50 -260 3 -19 8 -46 10 -60 8 -47 25 -165 31 -210 26
-228 32 -302 41 -475 8 -160 8 -498 0 -585 -4 -41 -9 -95 -11 -120 -2 -25 -6
-56 -9 -70 -3 -13 -8 -42 -11 -63 -7 -44 -47 -186 -66 -232 -7 -16 -14 -39
-16 -50 -2 -10 -7 -22 -11 -25 -4 -3 -18 -27 -32 -55 -14 -27 -30 -56 -37 -63
-7 -7 -13 -18 -13 -23 0 -16 -120 -133 -172 -168 -74 -50 -144 -75 -263 -96
-74 -13 -262 -3 -297 16 -9 5 -24 9 -32 9 -15 0 -146 58 -156 70 -3 3 -27 20
-55 39 -76 53 -232 216 -331 348 -49 65 -91 120 -94 123 -3 3 -9 12 -15 21
-24 38 -111 164 -116 169 -3 3 -8 10 -10 15 -2 6 -44 71 -93 145 -49 74 -101
155 -117 180 -15 25 -36 56 -46 70 -10 14 -18 27 -18 30 0 3 -16 30 -36 60
-19 30 -48 75 -63 100 -15 25 -45 74 -68 110 -22 36 -74 121 -116 190 -42 69
-81 128 -86 132 -6 4 -7 8 -3 8 4 0 -5 19 -21 43 -16 23 -44 69 -63 102 -19
33 -38 68 -44 77 -5 10 -64 109 -130 220 -66 112 -128 219 -139 238 -10 19
-22 37 -27 38 -5 2 -9 8 -9 13 0 5 -34 66 -75 135 -41 69 -75 130 -75 134 0 5
-6 15 -13 22 -7 7 -46 67 -86 133 -40 66 -110 179 -157 250 -46 72 -89 141
-95 155 -5 13 -14 27 -18 30 -4 3 -25 32 -46 65 -21 33 -42 65 -47 71 -10 13
167 282 311 474 52 69 97 127 100 130 3 3 31 34 61 70 57 69 265 280 274 280
3 0 14 8 24 18 52 49 183 142 201 142 5 0 11 3 13 8 4 8 94 53 165 81 79 31
166 51 251 58 42 3 78 6 79 7 3 3 104 -3 130 -7z m-4229 -241 c8 -5 53 -14 97
-20 68 -10 276 -100 370 -161 33 -22 134 -94 151 -110 7 -5 31 -26 54 -45 112
-93 295 -286 425 -450 33 -41 63 -77 66 -80 5 -4 128 -170 175 -235 123 -172
136 -193 125 -200 -8 -4 -143 -211 -186 -283 -6 -9 -24 -37 -40 -62 -16 -25
-34 -53 -40 -62 -5 -10 -39 -63 -75 -119 -36 -55 -72 -111 -80 -124 -8 -14
-44 -71 -79 -127 -36 -57 -67 -105 -70 -108 -3 -3 -15 -21 -25 -40 -11 -19
-40 -66 -65 -105 -25 -38 -50 -78 -56 -87 -42 -71 -99 -164 -104 -168 -11 -9
-71 -111 -71 -121 0 -5 -4 -9 -8 -9 -5 0 -26 -31 -48 -70 -21 -38 -42 -70 -46
-70 -5 0 -8 -4 -8 -9 0 -6 -34 -63 -75 -128 -42 -65 -81 -127 -88 -137 -87
-140 -321 -492 -328 -494 -5 -2 -9 -8 -9 -13 0 -8 -78 -127 -90 -139 -4 -3
-22 -27 -41 -55 -39 -56 -33 -49 -136 -180 -43 -55 -89 -113 -103 -130 -33
-39 -230 -236 -255 -255 -110 -85 -234 -148 -330 -169 -130 -28 -231 -30 -355
-7 -60 11 -201 71 -208 88 -2 4 -8 8 -13 8 -23 0 -126 102 -181 180 -50 70
-119 211 -133 270 -1 3 -7 25 -15 50 -26 88 -32 113 -45 195 -24 155 -29 233
-29 445 0 197 11 403 29 545 3 28 8 66 10 85 12 97 17 134 36 245 11 66 24
138 29 160 5 22 12 55 15 73 10 57 82 334 111 428 15 49 29 91 29 94 1 3 4 12
7 20 3 8 18 51 33 95 15 44 32 91 38 105 6 14 11 27 12 30 1 3 7 18 13 33 7
16 12 35 12 43 0 8 5 14 10 14 6 0 10 7 10 15 0 28 123 284 209 435 159 279
364 532 546 674 33 26 67 52 75 59 16 13 47 32 70 43 8 4 26 15 40 24 30 21
185 87 220 94 14 3 52 11 85 19 58 12 314 15 333 3z"/>
<path d="M12559 20152 l-25 -3 0 -3239 c0 -1782 2 -3241 5 -3241 27 -6 1008
-4 1016 2 7 5 10 843 9 2482 l-1 2476 29 -45 c15 -25 28 -51 28 -59 0 -8 4
-15 9 -15 5 0 13 -10 17 -22 4 -13 9 -25 13 -28 6 -5 46 -78 105 -195 17 -33
33 -62 37 -65 3 -3 14 -23 26 -45 11 -22 37 -69 57 -105 20 -36 44 -81 54
-100 9 -19 19 -37 22 -40 3 -3 12 -18 20 -35 8 -16 31 -59 51 -95 20 -36 55
-101 79 -145 24 -44 52 -96 63 -115 11 -19 33 -60 50 -90 16 -30 70 -129 119
-220 50 -91 106 -193 125 -228 18 -34 42 -77 52 -95 9 -18 31 -57 47 -87 16
-30 31 -57 34 -60 3 -3 18 -30 33 -60 15 -30 36 -68 46 -85 10 -16 33 -59 51
-95 19 -36 42 -77 52 -91 9 -14 15 -29 11 -33 -3 -3 -2 -6 4 -6 6 0 17 -15 24
-32 7 -18 17 -37 21 -43 12 -14 86 -154 101 -187 6 -16 15 -28 19 -28 4 0 8
-4 8 -10 0 -5 29 -61 64 -124 35 -63 61 -117 58 -120 -3 -3 -1 -6 5 -6 6 0 13
-8 17 -17 3 -10 26 -54 50 -98 25 -44 54 -96 64 -115 27 -49 71 -131 126 -230
26 -47 56 -103 67 -125 l21 -41 476 1 c296 0 483 4 492 10 8 6 25 30 38 55 36
73 97 185 102 190 3 3 16 28 30 55 14 28 27 52 30 55 3 3 19 32 35 65 17 33
33 61 38 63 4 2 7 7 7 12 0 4 17 39 38 77 43 75 128 232 149 275 8 15 19 30
24 33 5 4 7 10 4 15 -3 4 2 13 10 20 8 7 15 16 15 20 0 5 17 39 38 77 22 37
55 97 74 133 20 36 47 85 60 110 14 25 44 81 68 125 23 44 50 94 60 110 17 29
51 92 133 245 22 41 43 80 47 85 4 6 25 44 48 85 71 132 99 184 119 220 33 59
136 248 173 319 19 36 37 68 41 71 3 3 13 21 22 40 27 54 63 118 77 135 7 8 9
15 5 15 -4 0 -3 6 2 13 11 13 34 53 113 202 30 55 56 102 59 105 3 3 15 23 26
45 11 22 47 90 80 150 34 61 72 131 85 157 13 26 26 45 28 44 2 -2 3 -1119 3
-2482 l0 -2479 509 0 c279 0 511 3 515 7 8 8 10 6462 2 6475 -4 6 -1125 10
-1218 4 -8 -1 -24 -18 -36 -38 -11 -21 -37 -69 -58 -108 -21 -38 -50 -93 -66
-121 -15 -28 -47 -86 -70 -130 -23 -43 -55 -101 -70 -129 -16 -27 -42 -77 -59
-110 -49 -93 -64 -119 -75 -127 -5 -4 -6 -8 -2 -8 5 0 -1 -13 -12 -29 -12 -16
-21 -31 -21 -34 0 -3 -31 -62 -70 -131 -38 -70 -70 -129 -70 -131 0 -2 -15
-30 -34 -62 -18 -32 -51 -92 -73 -133 -22 -41 -54 -100 -70 -130 -17 -30 -104
-190 -193 -355 -90 -165 -175 -322 -190 -350 -15 -27 -41 -75 -58 -105 -16
-30 -44 -82 -62 -115 -92 -169 -151 -278 -190 -350 -24 -44 -51 -94 -60 -110
-10 -17 -36 -66 -60 -110 -74 -139 -92 -170 -101 -179 -5 -6 -9 -18 -9 -27 0
-10 -4 -19 -9 -21 -9 -3 -62 -103 -60 -114 0 -4 -4 -10 -9 -13 -5 -3 -34 -53
-65 -111 -30 -58 -67 -125 -81 -150 -23 -41 -66 -121 -113 -210 -10 -19 -20
-37 -23 -40 -3 -3 -14 -23 -25 -45 -11 -22 -22 -42 -25 -45 -4 -3 -12 -20 -19
-37 -15 -37 -26 -42 -35 -15 -3 9 -22 46 -42 82 -36 64 -78 142 -136 250 -16
30 -39 73 -52 95 -12 22 -43 78 -68 125 -25 47 -84 156 -132 243 -47 87 -86
162 -86 167 0 6 -4 10 -10 10 -5 0 -10 5 -10 11 0 7 -22 50 -49 98 -27 47 -69
125 -94 172 -25 48 -51 97 -60 110 -8 13 -37 67 -65 119 -55 105 -135 251
-157 290 -8 14 -30 54 -47 90 -18 36 -36 67 -40 68 -5 2 -8 7 -8 12 0 4 -20
43 -43 86 -24 44 -60 108 -79 144 -19 36 -50 92 -68 125 -18 33 -40 74 -48 90
-8 17 -24 42 -34 58 -11 15 -16 27 -13 27 3 0 -2 12 -12 28 -10 15 -25 41 -33
57 -8 17 -18 32 -21 35 -4 3 -14 21 -22 40 -9 19 -29 58 -45 85 -15 28 -68
124 -117 215 -48 91 -97 177 -107 193 -11 15 -16 27 -13 27 3 0 -2 12 -13 28
-10 15 -26 41 -34 57 -15 31 -72 136 -116 215 -13 25 -41 77 -62 115 -99 184
-114 210 -122 213 -4 2 -8 10 -8 18 0 8 -11 32 -25 54 -14 22 -25 44 -25 49 0
5 -5 13 -12 17 -11 7 -1183 13 -1239 6z"/>
<path d="M26150 19923 c0 -4 -33 -8 -72 -8 l-73 0 -2 -165 c-1 -91 -2 -181 -3
-200 -2 -47 -2 -326 0 -370 5 -119 4 -140 -3 -140 -5 0 -5 -5 -2 -10 4 -6 6
-95 6 -198 -1 -103 -1 -222 -1 -264 l0 -77 -30 9 c-16 5 -32 5 -34 1 -4 -7
-40 -7 -56 -1 -3 1 -9 1 -15 0 -12 -2 -126 -2 -140 1 -5 1 -14 0 -20 -1 -5 -1
-154 -2 -331 -1 l-320 0 0 -428 -1 -428 141 -2 c78 -1 148 -1 156 -1 8 0 150
0 315 0 165 1 308 1 318 1 12 -1 17 -9 17 -28 -2 -51 -2 -318 0 -353 5 -119 4
-140 -3 -140 -5 0 -5 -5 -2 -10 4 -6 6 -95 6 -198 -1 -103 0 -221 0 -262 1
-41 1 -84 1 -95 -1 -11 -1 -54 -1 -95 0 -41 0 -81 0 -87 -1 -47 -1 -106 2
-156 1 -31 -2 -57 -6 -57 -5 0 -5 -5 -2 -11 6 -8 7 -127 4 -464 0 -5 0 -75 0
-155 0 -80 0 -152 0 -160 -2 -82 16 -379 27 -440 4 -19 8 -48 10 -65 3 -28 6
-43 19 -115 11 -62 51 -215 64 -245 5 -11 15 -36 22 -55 7 -19 26 -64 43 -100
16 -36 30 -67 30 -70 5 -21 98 -163 146 -223 70 -87 234 -237 259 -237 6 0 11
-3 11 -7 0 -20 270 -150 345 -167 6 -2 30 -8 55 -15 25 -7 56 -15 70 -17 14
-3 33 -7 42 -10 27 -8 60 -14 113 -20 28 -3 53 -8 56 -10 3 -2 62 -6 130 -10
68 -3 135 -7 149 -8 14 -1 35 2 47 6 13 4 25 3 28 -3 4 -5 14 -7 24 -4 9 3 56
7 105 10 48 2 108 7 134 10 142 17 187 24 287 45 28 6 61 12 74 15 48 9 136
37 141 45 4 6 5 753 1 823 -1 19 -11 19 -141 -3 -136 -24 -275 -34 -455 -34
-181 0 -228 5 -350 35 -108 27 -227 98 -294 176 -81 94 -157 294 -177 467 -4
33 -9 73 -11 90 -3 17 -6 565 -7 1219 l-2 1187 21 0 c153 4 276 2 281 -2 3 -4
18 -3 32 1 15 4 43 6 62 4 42 -5 44 -5 98 0 24 2 45 0 48 -4 2 -4 17 -4 32 0
15 4 43 6 62 4 19 -2 42 -4 50 -4 8 0 182 1 385 2 l370 1 0 426 -1 427 -74 2
c-41 1 -77 3 -80 4 -3 1 -9 0 -15 -1 -12 -2 -126 -2 -140 1 -5 1 -14 0 -20 -1
-12 -2 -126 -2 -140 1 -5 1 -14 0 -20 -1 -12 -2 -126 -2 -140 1 -5 1 -14 0
-20 -1 -12 -2 -126 -2 -140 1 -5 1 -14 0 -20 -1 -12 -2 -126 -2 -140 1 -5 1
-14 0 -20 -1 -12 -2 -126 -2 -140 1 -5 1 -14 0 -20 -1 -12 -2 -126 -2 -140 1
-5 1 -14 0 -20 -1 -26 -5 -137 -2 -143 5 -4 3 -8 322 -8 708 -1 386 -2 706 -3
711 -1 5 -7 4 -13 -1 -7 -5 -42 -8 -78 -6 -75 4 -63 4 -165 0 -44 -2 -86 1
-92 6 -7 5 -13 6 -13 1 0 -5 -50 -9 -110 -9 -61 0 -110 4 -110 8 0 5 -6 5 -12
0 -17 -10 -38 -10 -65 -1 -13 4 -23 4 -23 0 0 -9 -132 -8 -148 2 -6 4 -12 4
-12 -1z"/>
<path d="M22457 18614 c-1 -1 -45 -5 -97 -8 -52 -3 -95 -6 -95 -7 0 0 -11 -2
-25 -4 -58 -6 -107 -13 -130 -19 -14 -3 -36 -8 -50 -10 -37 -7 -99 -21 -140
-31 -28 -7 -157 -49 -165 -54 -5 -3 -12 -6 -15 -6 -42 -5 -334 -145 -351 -168
-3 -5 -10 -9 -15 -9 -8 -1 -61 -35 -164 -105 -164 -112 -404 -361 -516 -533
-16 -25 -31 -47 -34 -50 -8 -8 -70 -111 -70 -117 0 -3 -9 -18 -21 -34 -11 -16
-17 -29 -12 -29 4 0 3 -4 -3 -8 -11 -7 -55 -97 -109 -222 -41 -95 -99 -274
-121 -372 -2 -10 -6 -27 -9 -39 -2 -11 -6 -28 -9 -37 -5 -18 -10 -42 -23 -121
-4 -25 -8 -48 -8 -51 -1 -3 -5 -36 -9 -75 -5 -38 -10 -79 -12 -90 -7 -38 -16
-230 -17 -340 0 -268 28 -507 89 -750 30 -118 29 -116 36 -135 3 -8 18 -51 33
-95 16 -44 37 -102 49 -130 33 -79 143 -292 176 -341 16 -25 30 -49 30 -55 0
-5 5 -9 10 -9 6 0 10 -6 10 -14 0 -8 3 -16 8 -18 4 -1 32 -37 62 -78 30 -41
66 -88 80 -105 44 -51 224 -229 264 -260 21 -16 44 -34 50 -40 78 -69 243
-174 386 -245 65 -33 122 -60 127 -60 4 0 21 -7 36 -15 75 -39 300 -104 452
-131 77 -13 104 -18 205 -30 119 -15 604 -8 720 11 14 2 48 6 75 10 61 7 254
44 275 52 8 3 22 7 30 9 23 5 223 64 240 71 8 3 17 7 20 8 25 9 164 67 214 90
30 14 60 25 65 25 6 0 11 4 11 8 0 5 19 17 43 27 97 43 335 200 461 305 153
128 146 120 131 151 -8 15 -18 29 -22 31 -5 1 -21 21 -38 43 -16 21 -35 46
-43 55 -8 8 -75 92 -149 185 -74 94 -147 184 -162 202 -14 17 -46 57 -70 87
l-44 56 -71 -63 c-78 -69 -121 -104 -156 -127 -12 -8 -28 -19 -34 -25 -27 -24
-76 -55 -86 -55 -5 0 -10 -4 -10 -10 0 -5 -7 -10 -15 -10 -8 0 -15 -3 -15 -8
0 -4 -15 -13 -32 -21 -18 -8 -35 -17 -38 -20 -7 -9 -130 -67 -193 -92 -111
-45 -312 -96 -407 -104 -19 -2 -35 -4 -35 -5 0 -13 -440 -21 -515 -10 -30 4
-75 11 -100 15 -420 62 -789 347 -985 758 -37 79 -98 249 -110 312 -5 22 -9
42 -10 45 -1 3 -5 23 -9 45 -4 22 -11 50 -16 62 -7 16 -5 22 8 25 9 2 793 3
1742 3 949 -1 1730 0 1735 2 15 5 7 543 -10 683 -3 19 -7 55 -10 80 -2 25 -6
59 -9 75 -21 140 -28 185 -40 235 -3 14 -8 36 -10 50 -3 14 -12 51 -20 83 -9
31 -22 81 -30 110 -8 28 -24 79 -36 112 -12 33 -25 72 -30 87 -15 48 -94 222
-133 293 -21 39 -41 78 -44 88 -3 9 -9 17 -14 17 -5 0 -9 5 -9 11 0 13 -99
163 -111 167 -5 2 -9 10 -9 17 0 7 -3 15 -7 17 -5 2 -30 30 -56 63 -97 119
-255 270 -348 332 -21 14 -39 30 -39 34 0 5 -4 9 -10 9 -5 0 -37 18 -70 39
-91 59 -243 134 -345 171 -121 44 -117 43 -140 47 -11 2 -27 6 -35 10 -8 3
-19 7 -25 9 -17 4 -64 14 -92 19 -16 3 -48 10 -73 15 -25 6 -65 12 -90 14 -25
2 -45 5 -45 6 0 6 -392 19 -398 14z m221 -885 c29 -1 55 -6 58 -10 2 -5 11 -6
18 -3 16 6 154 -26 239 -55 73 -25 193 -90 266 -144 80 -59 236 -221 250 -261
2 -6 7 -13 11 -16 26 -21 119 -207 153 -311 15 -45 45 -155 53 -194 16 -81 26
-146 29 -187 2 -26 6 -51 9 -57 4 -5 2 -12 -3 -16 -12 -7 -2491 -8 -2498 -1
-3 2 0 28 6 56 6 28 9 56 5 61 -3 5 -1 9 3 9 5 0 9 9 10 20 1 12 10 47 19 78
10 31 18 59 19 62 13 49 30 97 37 105 4 5 8 15 8 23 0 8 24 62 53 120 136 271
310 458 550 591 31 17 57 28 57 24 0 -4 4 -3 8 3 9 14 182 74 226 79 17 2 31
4 31 5 0 3 40 10 95 16 30 3 56 7 57 7 2 3 165 0 231 -4z"/>
<path d="M31028 18615 c-2 -2 -43 -5 -93 -8 -49 -3 -101 -8 -115 -11 -14 -2
-48 -7 -77 -10 -28 -3 -57 -8 -65 -11 -7 -2 -24 -7 -38 -9 -49 -9 -73 -16
-129 -32 -31 -9 -63 -18 -71 -19 -8 -2 -16 -4 -17 -5 -2 -2 -6 -3 -10 -5 -5
-1 -21 -7 -36 -13 -16 -7 -31 -12 -34 -12 -6 0 -63 -25 -133 -58 -30 -15 -57
-25 -59 -24 -2 2 -7 0 -10 -5 -3 -4 -31 -21 -61 -38 -49 -26 -69 -38 -143 -88
-110 -72 -303 -236 -356 -301 -9 -11 -34 -40 -57 -65 -22 -25 -55 -66 -74 -91
-19 -25 -37 -47 -40 -50 -9 -9 -118 -175 -141 -215 -34 -60 -139 -273 -139
-282 0 -4 -7 -21 -16 -38 -17 -33 -91 -252 -98 -291 -3 -14 -9 -40 -15 -57 -8
-26 -29 -119 -46 -207 -10 -54 -30 -223 -39 -335 -6 -66 -7 -416 -2 -481 12
-152 26 -269 43 -359 3 -16 7 -39 9 -50 2 -11 5 -31 8 -45 3 -14 8 -34 10 -45
35 -172 152 -497 230 -638 13 -23 38 -69 56 -102 18 -33 39 -67 46 -76 8 -8
14 -20 14 -26 0 -6 3 -13 8 -15 4 -1 27 -32 51 -68 109 -159 295 -359 426
-455 22 -17 42 -32 45 -36 9 -9 153 -105 205 -135 75 -44 233 -119 270 -128 6
-2 23 -8 39 -15 16 -6 36 -13 45 -15 9 -2 23 -6 31 -9 46 -18 188 -50 280 -63
14 -2 43 -6 65 -10 49 -8 467 -14 478 -7 5 3 38 7 74 9 36 3 70 7 74 10 5 3
28 7 51 10 81 10 278 68 378 111 301 131 538 316 727 566 28 37 53 64 55 60 2
-4 4 -153 3 -330 0 -178 2 -324 5 -324 3 -1 220 -2 483 -3 417 -1 478 1 481
14 3 8 4 1096 4 2417 l0 2402 -487 -2 -486 -2 0 -303 c0 -166 -3 -302 -6 -302
-3 0 -20 19 -37 43 -17 23 -41 53 -54 67 -13 14 -40 44 -60 67 -20 23 -39 39
-42 35 -3 -3 -6 0 -6 6 0 9 -130 122 -195 170 -81 59 -260 159 -345 191 -25
10 -54 22 -65 26 -11 5 -23 9 -27 10 -5 2 -10 4 -13 5 -3 1 -8 3 -12 4 -5 1
-14 5 -20 9 -7 5 -13 6 -13 3 0 -3 -19 1 -41 10 -23 8 -51 16 -63 19 -12 2
-32 6 -46 9 -161 35 -251 45 -438 50 -67 2 -123 2 -124 1z m482 -928 c19 -3
53 -9 75 -13 22 -4 46 -7 53 -7 6 0 12 -4 12 -9 0 -5 4 -6 10 -3 15 9 214 -61
302 -107 153 -79 313 -208 426 -342 64 -76 157 -233 214 -363 11 -26 14 -158
13 -765 l-1 -733 -24 -50 c-13 -27 -24 -52 -25 -55 -1 -5 -21 -41 -42 -75 -7
-11 -17 -29 -22 -40 -33 -67 -177 -237 -266 -311 -125 -106 -281 -200 -410
-247 -125 -46 -105 -39 -174 -55 -25 -6 -48 -9 -52 -6 -4 2 -10 0 -13 -5 -6
-9 -36 -14 -146 -27 -53 -6 -282 -6 -325 0 -16 3 -50 7 -74 10 -164 20 -355
94 -511 198 -78 53 -254 223 -286 277 -10 17 -22 31 -26 31 -4 0 -8 6 -8 13 0
7 -8 22 -19 33 -26 29 -136 253 -149 306 -1 5 -8 25 -16 45 -42 117 -78 294
-92 458 -13 146 -7 470 10 565 3 14 7 45 10 70 3 25 10 60 15 78 5 17 8 32 6
32 -3 0 0 11 5 26 6 14 12 39 15 56 13 72 131 353 162 386 6 6 15 21 18 32 3
11 11 20 16 20 5 0 9 6 9 13 0 7 8 22 18 33 9 10 30 37 46 59 70 95 251 255
341 300 22 11 42 23 45 27 13 16 260 114 260 102 0 -2 8 0 18 5 10 5 36 12 58
15 22 4 51 9 64 12 14 2 50 7 80 10 30 3 56 7 58 8 4 5 286 -2 322 -7z"/>
</g>
</svg>
